<?xml version="1.0" standalone="no"?>
<!DOCTYPE svg PUBLIC "-//W3C//DTD SVG 20010904//EN"
 "http://www.w3.org/TR/2001/REC-SVG-20010904/DTD/svg10.dtd">
<svg version="1.0" xmlns="http://www.w3.org/2000/svg"
 width="512.000000pt" height="512.000000pt" viewBox="0 0 512.000000 512.000000"
 preserveAspectRatio="xMidYMid meet">

<g transform="translate(0.000000,512.000000) scale(0.100000,-0.100000)"
fill="#000000" stroke="none">
<path d="M2517 4939 c-36 -21 -47 -71 -47 -219 0 -136 -1 -142 -25 -165 -41
-42 -71 -34 -182 50 -112 85 -145 93 -188 50 -27 -27 -33 -79 -12 -105 7 -9
95 -81 197 -160 102 -79 190 -151 197 -160 9 -11 12 -168 13 -656 l0 -641 -23
-21 c-15 -14 -36 -22 -58 -22 -32 0 -65 31 -487 453 -353 353 -452 458 -452
477 0 14 13 130 30 258 19 149 26 241 21 255 -19 48 -72 67 -120 43 -34 -18
-45 -49 -56 -156 -13 -132 -35 -170 -99 -170 -24 0 -50 20 -142 110 -104 102
-115 110 -151 110 -52 0 -83 -32 -83 -84 0 -34 9 -47 110 -150 90 -92 110
-118 110 -142 0 -64 -38 -86 -170 -99 -106 -11 -138 -22 -155 -55 -19 -37 -19
-60 1 -88 29 -42 50 -43 296 -12 128 17 244 30 258 30 19 0 124 -99 477 -452
429 -429 453 -455 453 -489 0 -24 -7 -42 -23 -57 l-23 -22 -640 0 c-497 0
-644 3 -656 13 -9 6 -80 95 -159 197 -79 102 -150 190 -159 197 -8 7 -30 13
-48 13 -73 0 -108 -87 -59 -147 132 -160 149 -202 102 -248 -23 -24 -29 -25
-167 -25 -161 0 -205 -12 -222 -62 -14 -41 3 -80 44 -100 29 -15 62 -18 182
-18 146 0 147 0 167 -26 36 -46 28 -74 -54 -182 -84 -112 -93 -145 -50 -187
27 -27 79 -33 106 -12 8 7 80 95 159 197 80 102 151 190 160 197 11 9 168 12
656 13 l641 0 21 -23 c14 -15 22 -36 22 -58 0 -32 -31 -65 -453 -487 -353
-353 -458 -452 -477 -452 -14 0 -130 13 -258 30 -149 19 -241 26 -255 21 -48
-19 -67 -72 -43 -120 18 -34 49 -45 156 -56 132 -13 170 -35 170 -99 0 -24
-20 -50 -110 -142 -102 -104 -110 -115 -110 -151 0 -52 32 -83 84 -83 34 0 47
9 150 110 92 90 118 110 142 110 64 0 86 -38 99 -170 11 -106 22 -138 55 -155
37 -19 60 -19 88 1 42 29 43 50 12 296 -17 128 -30 244 -30 258 0 19 99 124
452 477 429 429 455 453 489 453 24 0 42 -7 57 -23 l22 -23 0 -640 c0 -497 -3
-644 -12 -656 -7 -9 -96 -80 -198 -159 -102 -79 -190 -150 -197 -159 -7 -8
-13 -30 -13 -48 0 -73 87 -108 147 -59 160 132 202 149 248 102 24 -23 25 -29
25 -167 0 -116 3 -150 18 -178 33 -66 111 -66 144 0 15 29 18 62 18 182 0 146
0 147 26 167 51 40 83 27 222 -86 65 -52 109 -57 147 -18 27 27 33 79 12 106
-7 8 -95 80 -197 159 -102 78 -191 150 -197 158 -10 12 -13 159 -13 657 l0
642 23 21 c15 14 36 22 58 22 32 0 65 -31 487 -453 353 -353 452 -458 452
-477 0 -14 -13 -130 -30 -258 -31 -246 -30 -267 12 -296 28 -20 51 -20 88 -1
33 17 44 49 55 155 13 132 35 170 99 170 24 0 50 -20 142 -110 104 -102 115
-110 151 -110 52 0 83 32 83 84 0 34 -9 47 -110 150 -90 92 -110 118 -110 142
0 64 38 86 170 99 106 11 138 22 155 55 19 37 19 60 -1 88 -29 42 -50 43 -296
12 -128 -17 -244 -30 -258 -30 -19 0 -124 99 -477 452 -429 429 -453 455 -453
489 0 24 7 42 23 57 l23 22 640 0 c497 0 644 -3 656 -12 9 -7 80 -96 159 -198
79 -102 150 -190 159 -197 8 -7 30 -13 48 -13 73 0 108 87 59 147 -129 157
-146 196 -106 247 20 26 21 26 167 26 120 0 153 3 182 18 41 20 58 59 44 100
-17 50 -61 62 -222 62 -138 0 -144 1 -167 25 -47 46 -33 81 82 223 52 65 57
109 18 147 -26 27 -79 33 -105 12 -9 -7 -80 -95 -159 -197 -79 -102 -151 -191
-159 -197 -12 -10 -159 -13 -657 -13 l-642 0 -21 23 c-14 15 -22 36 -22 58 0
32 31 65 453 487 353 353 458 452 477 452 14 0 130 -13 258 -30 246 -31 267
-30 296 12 20 28 20 51 1 88 -17 33 -49 44 -155 55 -132 13 -170 35 -170 99 0
24 20 50 110 142 102 104 110 115 110 151 0 52 -32 83 -84 83 -34 0 -47 -9
-150 -110 -92 -90 -118 -110 -142 -110 -64 0 -86 38 -99 170 -11 106 -22 138
-55 155 -37 19 -60 19 -88 -1 -42 -29 -43 -50 -12 -296 17 -128 30 -244 30
-258 0 -19 -99 -124 -452 -477 -429 -429 -455 -453 -489 -453 -24 0 -42 7 -57
23 l-22 23 0 640 c0 497 3 644 13 656 6 8 84 71 172 138 212 163 235 185 235
227 0 46 -37 83 -84 83 -25 0 -48 -11 -88 -43 -139 -113 -171 -126 -222 -86
-26 20 -26 21 -26 165 0 154 -11 203 -48 223 -26 14 -62 14 -85 0z"/>
</g>
</svg>
