<?xml version="1.0" standalone="no"?>
<!DOCTYPE svg PUBLIC "-//W3C//DTD SVG 20010904//EN"
 "http://www.w3.org/TR/2001/REC-SVG-20010904/DTD/svg10.dtd">
<svg version="1.0" xmlns="http://www.w3.org/2000/svg"
 width="512.000000pt" height="512.000000pt" viewBox="0 0 512.000000 512.000000"
 preserveAspectRatio="xMidYMid meet">

<g transform="translate(0.000000,512.000000) scale(0.100000,-0.100000)"
fill="#000000" stroke="none">
<path d="M500 5114 c-113 -22 -224 -79 -307 -158 -198 -187 -247 -459 -126
-705 43 -88 149 -201 225 -241 l48 -25 0 -1425 0 -1425 -47 -25 c-27 -14 -80
-56 -118 -95 -185 -184 -226 -463 -103 -698 47 -90 164 -204 255 -250 198 -98
419 -86 597 34 174 116 266 288 266 496 0 104 -18 183 -63 273 -39 79 -140
188 -219 237 l-58 36 0 578 0 579 584 0 584 0 47 -70 c51 -76 125 -146 192
-182 l43 -23 -1 -445 0 -445 -71 -45 c-162 -103 -261 -287 -262 -485 -1 -173
53 -304 174 -426 189 -189 465 -231 703 -107 91 47 203 164 249 258 47 99 63
166 62 275 0 105 -20 179 -72 279 -42 81 -145 189 -215 226 l-47 25 0 442 0
441 70 47 c76 50 146 125 182 191 l22 42 476 5 c449 4 480 5 560 26 306 79
536 306 622 616 21 77 22 100 26 560 l3 481 43 22 c110 59 223 199 267 333 20
62 24 93 23 189 0 98 -4 125 -26 182 -71 189 -205 318 -398 384 -41 14 -84 19
-165 19 -136 0 -225 -26 -332 -97 -171 -115 -263 -288 -263 -495 0 -104 18
-183 63 -273 39 -79 140 -188 219 -237 l58 -36 0 -412 c0 -422 -5 -487 -40
-560 -26 -54 -94 -121 -155 -154 l-50 -26 -461 -3 -462 -3 -46 69 c-51 78
-101 126 -182 178 l-54 35 0 442 0 442 52 30 c117 68 222 208 264 350 21 73
24 217 5 295 -52 218 -239 399 -456 445 -96 20 -178 19 -269 -5 -114 -29 -190
-73 -276 -160 -121 -121 -175 -252 -174 -425 1 -198 100 -382 262 -485 l71
-45 0 -445 1 -445 -43 -23 c-67 -36 -141 -106 -192 -182 l-47 -70 -584 0 -584
0 0 579 0 580 59 35 c122 75 230 221 266 361 20 77 19 221 -1 299 -65 252
-291 432 -554 441 -52 2 -106 1 -120 -1z"/>
</g>
</svg>
